# xmcd
#
# Track frame offsets: 
#        150
#        16297
#        30387
#        45275
#        60322
#        75697
#        87675
#        100355
#        114125
#        125525
#
# Disc length: 1913 seconds
#
# Revision: 5
# Processed by: cddbd v1.5.2PL0 Copyright (c) Steve Scherf et al.
# Submitted via: ExactAudioCopy v0.99pb5
#
DISCID=6e07770a
DTITLE=Various Artist - Country Heart
DYEAR=1996
DGENRE=Country
TTITLE0=Wynonna - Only Love
TTITLE1=George Strait - Love Without  End, Amen
TTITLE2=The Mavericks - There Goes My Heart
TTITLE3=McBride and The Ride - Sacred Ground
TTITLE4=Tracy Byrd - Someone To Give My Love To
TTITLE5=Trisha Yearwood - That's What I Like About You
TTITLE6=Mark Chesnutt - Your Love Is A Miracle
TTITLE7=Tanya Tucker - If Your Heart Ain't Busy Tonight
TTITLE8=Patty Loveless - Timber, I'm Falling In Love
TTITLE9=Vince Gill - I Still Believe In You
EXTD=
EXTT0=
EXTT1=
EXTT2=
EXTT3=
EXTT4=
EXTT5=
EXTT6=
EXTT7=
EXTT8=
EXTT9=
PLAYORDER=
